<?xml version="1.0" standalone="no"?>
<!DOCTYPE svg PUBLIC "-//W3C//DTD SVG 1.1//EN" "http://www.w3.org/Graphics/SVG/1.1/DTD/svg11.dtd">
<svg xmlns="http://www.w3.org/2000/svg">
<metadata>Copyright (C) 2019 by original authors @ fontello.com</metadata>
<defs>
<font id="fontello" horiz-adv-x="1000" >
<font-face font-family="fontello" font-weight="400" font-stretch="normal" units-per-em="1000" ascent="850" descent="-150" />
<missing-glyph horiz-adv-x="1000" />
<glyph glyph-name="accessory-empty" unicode="&#xe800;" d="M529 821c-75 21-150 8-216-29-67-38-113-100-130-171-20-75-12-150 25-217l75-129c0-4 0-4 5-8l75-125c29-50 75-84 129-100 54-17 112-9 162 21l4 4c50 29 84 75 100 129 17 54 9 112-20 162l-130 225c-8 17-29 21-45 13-17-8-21-29-13-46l129-225c42-71 17-162-54-200l-4-4c-71-42-163-17-200 54l-58 96 0 0-96 167c-29 50-34 108-21 166 17 54 50 100 100 129 50 30 108 38 162 21 55-16 100-50 130-100l58-104 0-4 104-183c38-67 46-142 29-217-21-75-66-133-133-175-67-38-142-46-217-29-75 20-137 66-175 133l-166 288c-9 16-30 20-46 12-4-4-9-25 0-42l166-287c25-42 55-75 92-104 38-30 79-46 121-59 46-12 92-16 133-8 46 4 92 21 134 46s75 54 104 92c29 37 46 79 58 120 13 46 17 92 8 134-4 46-20 91-45 133l-105 183 0 5-58 104c-37 62-100 108-171 129" horiz-adv-x="1000" />

<glyph glyph-name="add-circle-empty" unicode="&#xe801;" d="M500 850c-275 0-500-225-500-500s225-500 500-500 500 225 500 500-225 500-500 500m304-804c-37-38-87-71-137-92-54-21-109-33-167-33s-112 12-167 33c-50 21-95 54-137 92s-71 87-92 137c-21 55-33 109-33 167s12 113 33 167c21 50 54 96 92 137s87 71 137 92c55 21 109 33 167 33s113-12 167-33c50-21 96-54 137-92s71-87 92-137c21-54 33-109 33-167s-12-112-33-167c-21-50-54-95-92-137m-83 337h-183v188c0 21-17 33-34 33-21 0-33-16-33-33v-188h-192c-21 0-33-16-33-33 0-8 4-17 8-25 9-8 17-8 25-8h188v-188c0-8 4-16 8-25 8-8 17-8 25-8 21 0 33 17 33 33v188h184c21 0 33 16 33 33 4 21-12 33-29 33" horiz-adv-x="1000" />

<glyph glyph-name="add-circle" unicode="&#xe802;" d="M500 850c-275 0-500-225-500-500 0-275 225-500 500-500s500 225 500 500c0 275-225 500-500 500m221-533h-183v-188c0-21-17-33-34-33-8 0-16 4-25 8-8 9-8 17-8 25v188h-192c-8 0-16 4-25 8-4 8-8 17-8 25 0 21 17 33 33 33h188v188c0 21 16 33 33 33 21 0 33-16 33-33v-188h184c21 0 33-16 33-33 4-21-8-33-29-33" horiz-adv-x="1000" />

<glyph glyph-name="add-square-empty" unicode="&#xe803;" d="M871 792h-742c-37 0-71-34-71-71v-746c0-38 34-71 71-71h746c38 0 71 33 71 71v746c-4 42-33 71-75 71z m4-813h-746v742h746v-742z m-554 338h142v-142c0-8 4-17 8-25 8-8 17-8 25-8 21 0 33 16 33 33v142h142c21 0 33 16 33 33 0 21-16 33-33 33h-142v142c0 21-16 33-33 33-21 0-33-16-33-33v-142h-142c-21 0-33-16-33-33 0-8 4-17 8-25 8-4 17-8 25-8" horiz-adv-x="1000" />

<glyph glyph-name="add" unicode="&#xe804;" d="M842 388h-313v300c0 20-16 33-33 33-21 0-33-17-33-33v-305h-305c-20 0-33-16-33-33 0-21 17-33 33-33h305v-304c0-21 16-34 33-34 21 0 33 17 33 34v304h313c21 0 33 16 33 33 4 21-12 38-33 38z" horiz-adv-x="1000" />

<glyph glyph-name="arrow-down" unicode="&#xe805;" d="M813 546c16 17 37 17 54 0 16-17 16-38 0-54l-342-342c-17-17-37-17-54 0l-338 342c-16 16-16 37 0 54 17 17 38 17 55 0l312-313 313 313z" horiz-adv-x="1000" />

<glyph glyph-name="arrow-left" unicode="&#xe806;" d="M696 663c17 16 17 37 0 54-17 16-38 16-54 0l-342-342c-17-17-17-37 0-54l342-342c16-17 37-17 54 0 17 17 17 38 0 54l-313 317 313 313z" horiz-adv-x="1000" />

<glyph glyph-name="check-empty" unicode="&#xe807;" d="M871 792h-738c-41 0-75-34-75-75v-738c0-42 34-75 75-75h734c41 0 75 33 75 75v734c8 45-29 79-71 79z m0-813h-738v742h738l0 0v-742z m-129 525c16-16 16-37 0-54l-259-258c-8-9-16-13-25-13s-20 4-25 13l-170 171c-17 16-17 37 0 54s37 16 54 0l146-146 229 229c12 21 33 21 50 4z" horiz-adv-x="1000" />

<glyph glyph-name="arrow-right" unicode="&#xe808;" d="M304 663c-16 16-16 37 0 54 17 16 38 16 54 0l342-342c17-17 17-37 0-54l-342-342c-16-17-37-17-54 0-16 17-16 38 0 54l313 313-313 317z" horiz-adv-x="1000" />

<glyph glyph-name="arrow-up" unicode="&#xe809;" d="M813 154c16-16 37-16 54 0 16 17 16 38 0 54l-342 342c-17 17-37 17-54 0l-342-342c-16-16-16-37 0-54 17-16 38-16 54 0l317 313 313-313z" horiz-adv-x="1000" />

<glyph glyph-name="calendar-empty" unicode="&#xe80a;" d="M921 758h-171v50c0 21-17 42-42 42-20 0-41-17-41-42v-50h-338v50c0 21-16 42-41 42s-38-17-38-42v-50h-171c-41 0-79-41-79-91v-730c0-45 38-87 79-87h842c46 0 79 42 79 92v725c0 50-37 91-79 91z m0-821h-842v501h842v-501z m0 580h-842v162h171v-37c0-21 17-42 42-42s41 17 41 42v37h342v-37c0-21 17-42 42-42 21 0 41 17 41 42v37h171v-162h-8z m-508-434c25 0 41-16 41-41s-16-42-41-42-42 17-42 42 17 41 42 41z m-167 284c25 0 42-17 42-42s-17-42-42-42-42 17-42 42 17 42 42 42z m167-142c25 0 41-17 41-42s-16-41-41-41-42 16-42 41 17 42 42 42z m-167 0c25 0 42-17 42-42s-17-41-42-41-42 16-42 41 17 42 42 42z m0-142c25 0 42-16 42-41s-17-42-42-42-42 17-42 42 17 41 42 41z m508 284c25 0 42-17 42-42s-17-42-42-42-41 17-41 42 16 42 41 42z m0-142c25 0 42-17 42-42s-17-41-42-41-41 16-41 41 16 42 41 42z m-171 142c25 0 42-17 42-42s-17-42-42-42-41 17-41 42 16 42 41 42z m-170 0c25 0 41-17 41-42s-16-42-41-42-42 17-42 42 17 42 42 42z m170-142c25 0 42-17 42-42s-17-41-42-41-41 16-41 41 16 42 41 42z m0-142c25 0 42-16 42-41s-17-42-42-42-41 17-41 42 16 41 41 41z" horiz-adv-x="1000" />

<glyph glyph-name="calendar" unicode="&#xe80b;" d="M713 167c0-21 16-42 41-42 21 0 42 17 42 42 0 21-17 41-42 41-25-4-41-20-41-41z m0 166c0-20 16-41 41-41 21 0 42 16 42 41 0 21-17 42-42 42-25-4-41-21-41-42z m-171-333c0-21 16-42 41-42 21 0 42 17 42 42s-17 42-42 42c-20-4-41-21-41-42z m0 167c0-21 16-42 41-42 21 0 42 17 42 42 0 21-17 41-42 41-20-4-41-20-41-41z m0 166c0-20 16-41 41-41 21 0 42 16 42 41 0 21-17 42-42 42-20-4-41-21-41-42z m-167-333c0-21 17-42 42-42 21 0 41 17 41 42s-16 42-41 42c-25-4-42-21-42-42z m0 167c0-21 17-42 42-42 21 0 41 17 41 42 0 21-16 41-41 41-25-4-42-20-42-41z m0 166c0-20 17-41 42-41 21 0 41 16 41 41 0 21-16 42-41 42-25-4-42-21-42-42z m-171-333c0-21 17-42 42-42 21 0 42 17 42 42s-17 42-42 42c-25-4-42-21-42-42z m0 167c0-21 17-42 42-42 21 0 42 17 42 42 0 21-17 41-42 41-25-4-42-20-42-41z m0 166c0-20 17-41 42-41 21 0 42 16 42 41 0 21-17 42-42 42-25-4-42-21-42-42z m-204-379v496h1000l0-496c0-58-37-104-79-104h-842c-41 0-79 46-79 104z m738 721c-21 0-42 17-42 42v91c0 21 17 42 42 42 20 0 41-17 41-42v-95c-4-21-21-38-41-38z m-467 0c-21 0-42 17-42 42v91c0 21 17 42 42 42s42-17 42-42v-95c0-21-21-38-42-38z m537 117h113c46 0 79-38 79-79l0-196h-1000l0 196c0 45 38 79 79 79h117v-84c0-41 33-75 75-75s75 34 75 75v84h317v-84c0-41 33-75 75-75s75 34 75 75v84z" horiz-adv-x="1000" />

<glyph glyph-name="chat-empty" unicode="&#xe80c;" d="M996 283c0 163-96 300-229 367-75 121-204 200-359 200-225 0-412-183-412-408 0-100 37-192 96-263 4-4 8-12 8-21l-4-120c0-17 12-30 25-30 0 0 4 0 4 0l125 34c75-100 196-167 333-167 42 0 80 4 117 17 0 0 4 0 8 0 0 0 5 0 5 0l154-42c0 0 4 0 4 0 12 0 25 12 25 29l-4 121c0 8 4 17 8 21 63 71 96 162 96 262m-850-58c-25 29-46 63-58 100-13 38-21 75-21 117 0 46 8 87 25 129 16 42 41 75 75 108 33 29 66 54 108 71 42 17 88 25 133 25 46 0 92-8 134-25 41-17 79-42 108-71 33-29 54-66 75-108 17-42 25-88 25-129s-8-92-25-134c-17-41-42-75-75-108-33-29-67-54-108-71-42-16-88-25-134-25-33 0-66 4-95 13-9 4-17 4-25 4-9 0-17 0-25-4l-96-25 4 62c0 29-8 54-25 71m700-158c-17-21-25-42-25-71l4-63-96 25c-8 0-16 4-25 4-8 0-16 0-25-4-33-8-62-12-96-12-45 0-91 8-133 25-37 16-71 37-100 67 21-5 42-5 63-5 229 0 412 184 412 409 0 33-4 62-12 91 4-4 8-8 12-12 33-29 54-67 75-108 17-42 25-88 25-130 0-41-8-79-21-116-12-38-33-71-58-100m-267 329c-21 0-37 17-37 37 0 21 16 38 37 38s38-17 38-38c0-20-17-37-38-37z m-166 0c-21 0-38 17-38 37 0 21 17 38 38 38s37-17 37-38c0-20-17-37-37-37z m-171 0c-21 0-38 17-38 37 0 21 17 38 38 38s41-17 41-38c0-20-20-37-41-37z" horiz-adv-x="1000" />

<glyph glyph-name="chat" unicode="&#xe80d;" d="M1000 283c0-100-37-191-96-262-4-4-8-13-8-21l4-121c0-17-17-33-29-29l-154 42c-4 0-9 0-13 0-37-13-75-17-116-17-105 0-196 37-271 100 33-8 66-13 104-13 62 0 125 13 187 38 59 25 109 58 150 104 46 46 80 96 105 154 25 59 37 121 37 188 0 42-4 87-17 129 71-79 117-179 117-292z m-587 567c229 0 412-183 412-408 0-225-183-409-412-409-42 0-80 5-117 17-4 0-8 0-13 0l-154-42c-16-4-33 9-29 30l4 120c0 9-4 17-8 21-58 71-96 163-96 263 0 225 183 408 413 408z m-167-454c-21 0-38 17-38 37 0 21 17 38 38 38s37-17 37-38c0-20-16-37-37-37m171 0c-21 0-38 17-38 37 0 21 17 38 38 38s37-17 37-38c0-20-16-37-37-37m166 0c-20 0-37 17-37 37 0 21 17 38 37 38s38-17 38-38c0-20-17-37-38-37" horiz-adv-x="1000" />

<glyph glyph-name="classify-empty" unicode="&#xe80e;" d="M867 800h-271c-38 0-71-33-71-71v-271c0-41 33-70 71-70h271c37 0 71 33 71 70v271c0 38-34 71-71 71z m0-342h-271v271h271v-271z m0-125h-271c-38 0-71-33-71-70v-271c0-38 33-71 71-71h271c37 0 71 33 71 71v271c0 37-30 70-71 70z m0-341h-271v271h271v-271z m-463 341h-271c-37 0-70-33-70-70v-271c0-38 33-71 70-71h271c38 0 71 33 71 71v271c0 37-33 70-71 70z m0-341h-271v271h271v-271z m0 808h-271c-41 0-70-33-70-71v-271c0-37 33-70 70-70h271c38 0 71 33 71 70v271c0 38-33 71-71 71z m0-342h-271v271h271v-271z" horiz-adv-x="1000" />

<glyph glyph-name="check" unicode="&#xe80f;" d="M738 454l-259-258c-8-8-16-8-25-8-8 0-16 4-25 8l-166 167c-13 12-13 37 0 50 12 12 37 12 50 0l141-142 234 233c12 13 37 13 50 0 16-12 16-37 0-50m-596 338h716c46 0 84-38 84-84v-716c0-46-38-84-84-84h-716c-46 0-84 38-84 84v716c0 46 38 84 84 84z" horiz-adv-x="1000" />

<glyph glyph-name="dimission-empty" unicode="&#xe810;" d="M696 392c-8 0-17 0-21 0 29 46 46 100 46 154 0 158-129 287-288 287s-287-129-287-287c0-113 67-213 162-258-8-5-16-5-25-9-45-21-87-46-125-83-37-38-62-79-83-125-21-46-33-96-33-150 0-17 16-34 33-34 17 0 33 17 33 34 0 87 34 167 96 229 63 63 142 96 229 96 9 0 17 0 25 0-16-33-25-71-25-113 0-146 117-262 263-262 146 0 262 116 262 262s-120 259-262 259z m-263-67c-58 0-116 25-158 67-42 41-62 96-62 154 0 58 20 112 62 154 42 46 100 67 158 67 59 0 113-21 155-63 41-41 62-96 62-154 0-58-21-112-62-154-42-46-96-71-155-71z m263-396c-108 0-200 88-200 200s87 200 200 200c108 0 200-87 200-200s-92-200-200-200z m96 288c-9 8-25 8-38 0l-54-54-54 54c-8 8-25 8-38 0s-8-25 0-38l55-54-55-54c-8-8-8-25 0-38s25-8 38 0l54 55 54-55c9-8 25-8 38 0s8 25 0 38l-54 54 54 58c12 9 12 25 0 34z" horiz-adv-x="1000" />

<glyph glyph-name="classify" unicode="&#xe811;" d="M596 375c-38 0-71 33-71 71v271c0 37 33 71 71 71h271c37 0 71-34 71-71v-271c0-38-34-71-71-71h-271z m271-50c37 0 71-33 71-71v-271c0-37-34-71-71-71h-271c-38 0-71 34-71 71v271c0 38 33 71 71 71h271z m-463 0c38 0 71-33 71-71v-271c0-37-33-71-71-71h-271c-37 0-70 34-70 71v271c0 38 33 71 70 71h271z m0 463c38 0 71-34 71-71v-271c0-38-33-71-71-71h-271c-37 0-70 33-70 71v271c0 37 33 71 70 71h271z" horiz-adv-x="1000" />

<glyph glyph-name="bookmark" unicode="&#xe812;" d="M650 779q12 0 24-5 19-8 29-23t11-35v-719q0-19-11-35t-29-23q-10-4-24-4-27 0-47 18l-246 236-246-236q-20-19-46-19-13 0-25 5-18 7-29 23t-11 35v719q0 19 11 35t29 23q12 5 25 5h585z" horiz-adv-x="714.3" />

<glyph glyph-name="close-circle-empty" unicode="&#xe813;" d="M500 850c-275 0-500-225-500-500s225-500 500-500 500 225 500 500-225 500-500 500m304-804c-37-38-87-71-137-92-54-21-109-33-167-33s-112 12-167 33c-50 21-95 54-137 92s-71 87-92 137c-21 55-33 109-33 167s12 113 33 167c21 50 54 96 92 137s87 71 137 92c55 21 109 33 167 33s113-12 167-33c50-21 96-54 137-92s71-87 92-137c21-54 33-109 33-167s-12-112-33-167c-21-50-54-95-92-137m-100 508c-12 13-37 13-50 0l-154-154-154 154c-13 13-33 13-50 0-13-16-13-37 0-50l154-154-154-154c-13-13-13-38 0-50 8-8 17-8 25-8s17 4 25 8l154 154 154-154c9-8 17-8 25-8s17 4 25 8c13 12 13 37 0 50l-154 154 154 154c13 13 13 34 0 50" horiz-adv-x="1000" />

<glyph glyph-name="close-circle" unicode="&#xe814;" d="M500 850c-275 0-500-225-500-500s225-500 500-500c275 0 500 225 500 500s-225 500-500 500z m204-654c13-13 13-38 0-50-8-8-16-8-25-8-8 0-16 4-25 8l-154 154-154-154c-4-4-13-8-25-8s-17 4-25 8c-13 12-13 37 0 50l154 154-154 154c-13 13-13 34 0 50 12 13 37 13 50 0l154-154 154 154c13 13 38 13 50 0s13-37 0-50l-154-154 154-154z" horiz-adv-x="1000" />

<glyph glyph-name="close" unicode="&#xe815;" d="M554 350l250 250c17 17 17 38 0 54-16 17-37 17-54 0l-250-250-250 250c-17 17-37 17-54 0-13-16-13-41 0-54l250-250-250-250c-17-17-17-37 0-54 8-8 17-13 29-13 8 0 21 5 29 13l250 250 250-250c9-8 17-13 29-13 9 0 21 5 30 13 16 17 16 37 0 54l-259 250z" horiz-adv-x="1000" />

<glyph glyph-name="comment-empty" unicode="&#xe816;" d="M500 854c-275 0-500-221-500-491 0-121 42-230 117-313 4-8 8-17 8-25l-4-146c0-21 12-33 29-33 4 0 4 0 8 0l184 46c4 0 4 0 8 0 4 0 4 0 8 0 46-13 92-21 142-21 275 0 500 221 500 492s-225 491-500 491m304-787c-37-38-83-71-137-92-54-21-109-33-167-33-42 0-83 4-121 16-8 4-16 4-29 4-8 0-17 0-25-4l-133-33 4 96c0 25-8 54-25 75-33 37-54 79-71 125-17 46-25 96-25 146-4 54 8 108 29 162 21 50 54 92 92 134 37 37 83 70 137 91 55 21 109 34 167 34 58 0 113-13 167-34 50-21 96-50 137-91 38-38 71-84 92-134 21-50 33-108 33-162 0-59-12-113-33-163-21-54-54-96-92-137m-100 333c25 0 46-21 46-46 0-25-21-46-46-46-25 0-46 21-46 46 0 25 21 46 46 46z m-200 0c25 0 46-21 46-46 0-25-21-46-46-46-25 0-46 21-46 46 0 25 17 46 46 46z m-204 0c25 0 46-21 46-46 0-25-21-46-46-46s-46 21-46 46c0 25 21 46 46 46z" horiz-adv-x="1000" />

<glyph glyph-name="comment" unicode="&#xe817;" d="M500 850c-275 0-496-217-496-487 0-117 42-225 117-313 4-8 8-17 8-25l-4-142c0-21 17-37 38-33l187 46c4 0 8 0 13 0 45-13 91-21 141-21 275 0 496 217 496 488-4 270-225 487-500 487z m-200-537c-25 0-46 20-46 45s21 46 46 46 46-21 46-46-21-45-46-45z m204 0c-25 0-46 20-46 45s21 46 46 46c25 0 46-21 46-46s-21-45-46-45z m200 0c-25 0-46 20-46 45s21 46 46 46c25 0 46-21 46-46s-21-45-46-45z" horiz-adv-x="1000" />

<glyph glyph-name="copy-empty" unicode="&#xe818;" d="M867 575h-146v142c0 37-33 71-71 71h-517c-37 0-70-34-70-71v-521c0-38 33-71 70-71h146v-146c0-37 34-71 71-71h521c37 0 71 34 71 71v525c-4 38-34 71-75 71z m-734-379v521h521v-521h-521z m734-213h-521v142h312c38 0 71 33 71 71v308h138v-521z m-338 446c21 0 34-16 34-33 0-21-17-33-34-33h-275c-21 0-33 16-33 33 0 21 17 33 33 33h275z m0 171c21 0 34-17 34-33s-17-34-34-34h-275c-21 0-33 17-33 34s12 33 33 33h275z" horiz-adv-x="1000" />

<glyph glyph-name="copy" unicode="&#xe819;" d="M679 238v483c0 37-29 67-66 67h-484c-37 0-66-30-66-67v-483c0-38 29-67 66-67h484c37 0 66 29 66 67z m-150 183c0-17-16-33-33-33h-254c-17 0-34 16-34 33s17 33 34 33h258c17 0 29-16 29-33z m0 158c0-16-16-33-33-33h-254c-17 0-34 12-34 33s17 34 34 34h258c17-5 29-17 29-34z m342-50h-129v-291c0-34-13-67-38-92-25-25-58-38-91-38l-292 0v-129c0-37 29-67 67-67h483c37 0 67 30 67 67v484c0 37-30 66-67 66" horiz-adv-x="1000" />

<glyph glyph-name="doc-empty" unicode="&#xe81a;" d="M867 788h-734c-37 0-70-34-70-71v-738c0-37 33-71 70-71h738c37 0 71 34 71 71v738c-4 41-34 71-75 71z m0-805h-734v734h738v-734z m-513 371c0 21 17 34 34 34h341c21 0 34-17 34-34s-17-33-34-33h-341c-21-4-34 12-34 33z m0 179c0 21 17 34 34 34h341c21 0 34-17 34-34 0-20-17-33-34-33h-341c-21 0-34 13-34 33z m0-366c0 21 17 33 34 33h341c21 0 34-17 34-33 0-21-17-34-34-34h-341c-21-4-34 13-34 34z m-116 366c0 21 16 34 33 34s33-17 33-34c0-20-16-33-33-33s-33 13-33 33z m66-183c0-21-16-33-33-33s-33 12-33 33 16 33 33 33 33-12 33-33z m0-183c0-21-16-34-33-34s-33 17-33 34c0 21 16 33 33 33s33-12 33-33z" horiz-adv-x="1000" />

<glyph glyph-name="doc" unicode="&#xe81b;" d="M729 504h-337c-21 0-38 13-38 34 0 20 17 33 34 33h341c21 0 34-17 34-33 4-21-13-34-34-34m0-179h-337c-21 0-34 17-34 33 0 21 17 34 34 34h341c21 0 34-17 34-34 0-20-17-33-38-33m0-187h-337c-21 0-34 16-34 33 0 21 17 33 34 33h341c21 0 34-16 34-33 0-21-17-33-38-33m-454 366c-21 0-37 13-37 34 0 20 16 33 33 33 21 4 37-13 37-33 0-21-16-34-33-34m0-183c-21 0-33 17-33 33 0 21 16 34 33 34 21 0 33-17 33-34 0-16-16-33-33-33m0-183c-21 0-33 16-33 33 0 21 16 33 33 33 21 0 33-16 33-33 0-21-16-33-33-33m592 650h-734c-37 0-70-34-70-71v-734c0-37 33-71 70-71h734c37 0 71 34 71 71v734c0 37-34 71-71 71" horiz-adv-x="1000" />

<glyph glyph-name="down-circle-empty" unicode="&#xe81c;" d="M0 350c0-275 225-500 500-500s500 225 500 500-225 500-500 500-500-225-500-500z m804-304c-37-38-87-71-137-92-54-21-109-33-167-33s-112 12-167 33c-50 21-95 54-137 92s-71 87-92 137c-21 55-33 109-33 167s12 113 33 167c21 50 54 96 92 137s87 71 137 92c55 21 109 33 167 33s113-12 167-33c50-21 96-54 137-92s71-87 92-137c21-54 33-109 33-167s-12-112-33-167c-21-50-54-95-92-137m-516 371l187-188c8-8 17-8 25-8 8 0 17 4 25 8l192 188c8 8 8 16 8 25 0 8-4 16-8 25-13 12-38 12-50 0l-167-163-162 163c-13 12-38 12-50 0-13-13-13-34 0-50z" horiz-adv-x="1000" />

<glyph glyph-name="down-circle" unicode="&#xe81d;" d="M500 850c-275 0-500-225-500-500s225-500 500-500 500 225 500 500-225 500-500 500z m204-429l-187-188c-13-12-38-12-50 0l-179 180c-5 8-9 16-9 25 0 8 4 16 13 25 12 12 33 12 50 0l154-155 162 159c13 12 38 12 50 0s13-34-4-46z" horiz-adv-x="1000" />

<glyph glyph-name="down" unicode="&#xe81e;" d="M458 683v-558c0 0 0 0 0 0l-204 213c-16 16-41 16-62 0-17-17-17-42 0-63l275-288c8-8 21-12 29-12 12 0 21 4 29 12l279 288c9 8 13 21 13 29 0 13-4 21-13 29-16 17-46 17-62 0l-200-208c0 0 0 0 0 0v558c0 21-17 42-42 42-21 4-42-17-42-42z" horiz-adv-x="1000" />

<glyph glyph-name="download" unicode="&#xe81f;" d="M471 21l-333 333c-13 13-13 38 0 50 12 13 37 13 50 0l279-279v617c0 21 16 33 33 33s33-17 33-33v-617l280 279c12 13 37 13 50 0 12-12 12-37 0-50l-334-333c-8-8-16-13-29-8 0 0 0 0-4 0 0 0 0 0-4 0-4-5-13 0-21 8z m367-29c20 0 37-17 37-34 0-21-17-33-37-33h-671c-21 0-38 17-38 33 0 21 17 34 38 34h671z" horiz-adv-x="1000" />

<glyph glyph-name="edit" unicode="&#xe820;" d="M208-79l-62 162 304-171-171-33c-29-4-58 13-71 42z m563 567l-254-450v0l-34-63-120 67-63 33-121 67h0l34 62 254 450 33 63v0l42 66c21 34 62 46 96 25l183-100c33-20 46-62 25-95l-38-67v0l-37-58z m-433-355l-63 34 254 450 63-34-254-450z m225 550l37 67 183-104-37-67-183 104z m-105-616l-58 33 254 450 63-33-259-450z" horiz-adv-x="1000" />

<glyph glyph-name="dimission" unicode="&#xe821;" d="M713 363c-30 0-55-5-80-13 0 0 0 0 0 0-87-33-154-117-154-217 0-125 104-229 229-229 50 0 100 17 138 46 0 0 0 0 0 0 29 21 50 50 67 79 0 0 0 0 0 0 4 9 8 13 8 21 0 0 0 4 0 4 4 4 4 13 4 17 0 4 0 4 0 8 0 4 4 13 4 17 0 4 0 4 0 8 0 9 0 17 0 25 13 134-87 234-216 234z m95-296c9-9 9-29 0-38-8-8-29-8-37 0l-58 59-59-59c-8-8-29-8-37 0-9 9-9 29 0 38l58 58-58 58c-9 9-9 30 0 38 8 8 29 8 37 0l59-58 58 58c8 8 29 8 37 0 9-8 9-29 0-38l-58-58 58-58z m-391 66c0 159 125 292 283 296 21 38 33 84 33 134 0 154-125 279-279 279-154 0-279-125-279-279 0-105 54-192 138-242-150-63-255-221-255-409h0c0 0 0-4 0-4 0-29 180-50 396-50 46 0 92 0 138 4-104 46-175 151-175 271z" horiz-adv-x="1000" />

<glyph glyph-name="error-square-empty" unicode="&#xe822;" d="M871 792h-742c-37 0-71-34-71-71v-746c0-38 34-71 71-71h746c38 0 71 33 71 71v746c-4 42-33 71-75 71z m4-813h-746v742h746v-742z m-171 575c-12 13-37 13-50 0l-154-154-154 154c-13 13-33 13-50 0-13-16-13-37 0-50l154-154-154-154c-13-13-13-38 0-50 8-8 17-8 25-8s17 4 25 8l154 154 154-154c9-8 17-8 25-8s17 4 25 8c13 12 13 37 0 50l-154 154 154 154c13 13 13 34 0 50" horiz-adv-x="1000" />

<glyph glyph-name="folder" unicode="&#xe823;" d="M929 511v-393q0-51-37-88t-88-37h-679q-51 0-88 37t-37 88v536q0 51 37 88t88 37h179q51 0 88-37t37-88v-18h375q51 0 88-37t37-88z" horiz-adv-x="928.6" />

<glyph glyph-name="folder-open" unicode="&#xe824;" d="M1049 319q0-17-18-37l-187-221q-24-28-67-48t-81-20h-607q-19 0-33 7t-15 24q0 17 17 37l188 221q24 28 67 48t80 20h607q19 0 34-7t15-24z m-192 192v-90h-464q-53 0-110-26t-92-67l-188-221-2-3q0 2-1 7t0 7v536q0 51 37 88t88 37h179q51 0 88-37t37-88v-18h303q52 0 88-37t37-88z" horiz-adv-x="1071.4" />

<glyph glyph-name="error-square" unicode="&#xe825;" d="M871 792h-742c-37 0-71-34-71-71v-746c0-38 34-71 71-71h746c38 0 71 33 71 71v746c-4 42-33 71-75 71z m-167-596c13-13 13-38 0-50-8-4-16-8-25-8s-16 0-25 8l-154 154-154-154c-8-4-17-8-25-8s-17 0-25 8c-13 12-13 37 0 50l154 154-154 154c-13 13-13 34 0 50 17 13 37 13 50 0l154-154 154 154c13 13 38 13 50 0 13-16 13-37 0-50l-154-154 154-154z" horiz-adv-x="1000" />

<glyph glyph-name="filter-empty" unicode="&#xe826;" d="M525 21c13-13 13-38 0-50-12-13-37-13-50 0l-83 83c-9 9-9 17-9 25v259l-254 262c-41 42-41 113 0 154 21 21 46 34 75 34h592c58 0 104-50 104-109 0-29-12-58-29-79l-238-246v-404c0-21-16-38-33-38-21 0-33 17-33 38v421c0 8 4 21 8 25l246 258c8 9 8 17 8 25 0 21-16 38-33 38h-592c-8 0-16-4-25-13-12-16-12-37 0-50l263-271c8-8 8-16 8-25v-258l75-79z" horiz-adv-x="1000" />

<glyph glyph-name="heart-empty" unicode="&#xe827;" d="M700 692c54 0 104-21 146-59 37-37 58-87 58-141 0-54-21-104-58-142l-4-4-342-338-342 338-4 4c-37 38-58 88-58 142 0 54 21 104 58 141 38 38 88 59 146 59 54 0 104-21 142-59l58-54 54 54c38 38 92 59 146 59m0 79c-71 0-142-25-200-79-54 54-125 79-200 79-71 0-146-29-200-83-108-109-108-284 0-396l0 0 342-338c16-17 33-21 54-21 21 0 42 9 54 21l342 338 0 0c108 108 108 283 0 396-50 54-121 83-192 83" horiz-adv-x="1000" />

<glyph glyph-name="heart" unicode="&#xe828;" d="M500 688c-108 108-287 108-396 0-108-109-108-284 0-396l0 0 342-338c29-29 79-29 108 0l342 338 0 0c108 108 108 283 0 396-108 108-288 108-396 0" horiz-adv-x="1000" />

<glyph glyph-name="help-empty" unicode="&#xe829;" d="M500 850c-275 0-500-225-500-500 0-275 225-500 500-500 275 0 500 225 500 500 0 275-225 500-500 500z m304-804c-37-38-87-71-137-92-54-21-109-33-167-33s-112 12-167 33c-50 21-95 54-137 92s-71 87-92 137c-21 55-33 109-33 167s12 113 33 167c21 50 54 96 92 137s87 71 137 92c55 21 109 33 167 33s113-12 167-33c50-21 96-54 137-92s71-87 92-137c21-54 33-109 33-167s-12-112-33-167c-21-50-54-95-92-137z m-254 596c-75 21-137 0-187-59-34-33-46-75-46-120 0-17 12-30 29-34 12 0 25 9 29 25 0 4 0 9 0 13 4 75 67 129 142 121 58-9 100-55 108-113 4-58-29-108-83-129-4 0-13-4-17-8-42-21-58-50-58-96 0-17 12-29 29-29 17 0 29 8 33 25 0 4 0 12 0 16 0 13 9 21 17 29 4 5 12 5 17 9 70 29 120 96 120 175 0 12-4 25-4 37-12 71-58 121-129 138z m-46-492c-16 0-29-12-29-29 0-4 0-13 0-17 0-4 0-12 0-16 0-17 13-30 29-30 17 0 29 13 34 30 0 12 0 20 0 33-5 17-17 29-34 29z" horiz-adv-x="1000" />

<glyph glyph-name="help" unicode="&#xe82a;" d="M500 850c-275 0-500-225-500-500s225-500 500-500c275 0 500 225 500 500s-225 500-500 500z m33-762c0-17-12-30-33-30-17 0-29 13-29 30 0 4 0 12 0 16 0 4 0 13 0 17 0 17 12 29 29 29 17 0 29-12 33-29 0-13 0-25 0-33z m38 200c-4-5-13-5-17-9-12-4-16-16-16-29 0-4 0-12 0-17-5-16-17-25-34-25-16 0-29 13-29 30 0 45 17 75 58 95 5 5 13 5 17 9 54 21 88 75 83 129-4 58-50 104-108 112-75 9-137-45-142-120 0-5 0-9 0-13-4-17-20-25-33-21-25 4-33 17-33 34 0 45 16 87 46 120 50 59 112 80 187 59 75-17 121-67 138-142 4-12 4-25 4-37 0-80-50-146-121-175z" horiz-adv-x="1000" />

<glyph glyph-name="home-empty" unicode="&#xe82b;" d="M425 758l-346-333c-21-17-25-46-12-71 8-25 33-37 58-37h63v-309c0-54 45-96 100-96h425c54 0 100 42 100 96v305h58c25 0 50 16 62 37 9 25 5 50-12 71l-350 337c-21 17-46 30-71 30s-58-9-75-30z m-179-750v367h-121c-4 0-4 0-4 4s0 4 0 9l346 333c8 8 16 12 29 12s21-4 29-12l350-338c0 0 4-4 0-8 0-4-4-4-4-4h-117v-363c0-21-16-37-41-37h-425c-21 0-42 16-42 37z m192 267c-50 0-88-33-88-75v-179h63v179c0 13 12 21 25 21h116c13 0 25-8 25-21v-179h63v179c0 42-38 75-88 75h-116z" horiz-adv-x="1000" />

<glyph glyph-name="home" unicode="&#xe82c;" d="M671-25h-63v192c0 16-12 33-33 33h-150c-17 0-33-12-33-33v-192h-63v192c0 54 42 96 96 96h150c54 0 96-42 96-96v-192z m254 417l-375 375c-29 29-75 29-104 0l-371-371c-25-25-8-67 25-67h63v-337c0-42 33-75 75-75h525c41 0 75 33 75 75v333h58c37 0 54 42 29 67z" horiz-adv-x="1000" />

<glyph glyph-name="info-empty" unicode="&#xe82d;" d="M500-150c-275 0-500 225-500 500s225 500 500 500 500-225 500-500-225-500-500-500m304 804c-41 38-87 71-137 92-54 21-109 33-167 33s-112-12-167-33c-50-21-95-54-137-92s-71-87-92-137c-21-54-33-109-33-167s12-112 33-167c21-50 54-95 92-137s87-71 137-92c55-21 109-33 167-33s113 12 167 33c50 21 96 54 137 92s71 87 92 137c21 55 33 109 33 167s-12 113-33 167c-21 50-54 96-92 137m-266-96c0 21-17 42-42 42-21 0-42-17-42-42 0-20 17-41 42-41 25 4 42 21 42 41z m0-120c0 20-17 41-42 41-21 0-42-16-42-41v-296c0-21 17-42 42-42 21 0 42 17 42 42v296z" horiz-adv-x="1000" />

<glyph glyph-name="info" unicode="&#xe82e;" d="M821 733c-213 180-525 150-704-62-180-213-150-525 62-704s525-150 704 62c180 213 150 525-62 704z m-321-212c-21 0-42 17-42 42s17 41 42 41c21 0 42-16 42-41s-21-42-42-42z m42-379c0-21-17-42-42-42-21 0-42 17-42 42v296c0 20 17 41 42 41 21 0 42-16 42-41v-296z" horiz-adv-x="1000" />

<glyph glyph-name="invisible-empty" unicode="&#xe82f;" d="M996 363c-67 216-267 366-496 366s-429-150-496-366l-4-13 4-12c67-217 267-367 496-367s429 150 496 367l4 12-4 13z m-921-13c58 183 229 308 425 308 46 0 92-8 133-20l-75-130c-16 9-33 13-54 13-96 0-175-79-175-175 0-50 25-96 59-129l-80-134c-108 50-195 146-233 267z m538-4c0-58-46-108-109-108-8 0-12 0-16 0l100 175c12-17 25-38 25-67z m-217 0c0 58 46 108 108 108 9 0 13 0 21-4l-100-175c-17 21-29 46-29 71z m104-304c-42 0-83 4-121 16l71 125c17-4 33-8 54-8 96 0 175 79 175 175 0 50-21 96-58 129l79 138c108-54 192-146 229-263-62-187-233-312-429-312z" horiz-adv-x="1000" />

<glyph glyph-name="invisible" unicode="&#xe830;" d="M492 225l116 200c17-21 30-50 30-79 0-71-55-125-125-125-9 4-17 4-21 4z m-171 125c0 104 83 188 187 188 21 0 42-5 59-9l96 167c-50 17-109 25-167 25-233 0-429-154-496-371 42-142 146-262 279-321l104 184c-37 33-62 83-62 137z m187 125c-70 0-125-54-125-125 0-33 13-62 34-83l121 208c-9 0-17 0-30 0z m234 188l-100-175c37-34 58-84 58-134 0-104-83-187-187-187-17 0-34 4-50 8l-100-171c45-12 91-21 141-21 238 0 434 159 500 371-46 129-137 242-262 309z" horiz-adv-x="1000" />

<glyph glyph-name="left-circle-empty" unicode="&#xe831;" d="M500 850c-275 0-500-225-500-500s225-500 500-500 500 225 500 500-225 500-500 500m304-804c-37-38-87-71-137-92-54-21-109-33-167-33s-112 12-167 33c-50 21-95 54-137 92s-71 87-92 137c-21 55-33 109-33 167s12 113 33 167c21 50 54 96 92 137s87 71 137 92c55 21 109 33 167 33s113-12 167-33c50-21 96-54 137-92s71-87 92-137c21-54 33-109 33-167s-12-112-33-167c-21-50-54-95-92-137m-229 512c-12 13-37 13-50 0l-187-187c-9-8-9-17-9-25 0-8 4-17 9-25l187-188c8-8 17-8 25-8 8 0 17 4 25 8 13 13 13 38 0 50l-158 163 162 162c13 13 13 38-4 50" horiz-adv-x="1000" />

<glyph glyph-name="left-circle" unicode="&#xe832;" d="M500 850c-275 0-500-225-500-500 0-275 225-500 500-500 275 0 500 225 500 500 0 275-225 500-500 500z m117-667c12-12 12-37 0-50-9-8-17-8-25-8s-17 4-25 8l-188 188c-12 12-12 37 0 50l188 187c12 13 37 13 50 0 12-12 12-37 0-50l-159-162 159-163z" horiz-adv-x="1000" />

<glyph glyph-name="left" unicode="&#xe833;" d="M833 392h-562c0 0 0 0 0 0l212 204c17 17 17 42 0 62-16 17-41 17-62 0l-288-275c-4-8-8-20-8-33 0-12 4-21 13-29l287-279c8-9 21-13 29-13 13 0 21 4 29 13 17 16 17 46 0 62l-208 204c0 0 0 0 0 0h558c21 0 42 17 42 42 4 21-17 42-42 42z" horiz-adv-x="1000" />

<glyph glyph-name="add-square" unicode="&#xe834;" d="M871 792h-742c-37 0-71-34-71-71v-746c0-38 34-71 71-71h746c38 0 71 33 71 71v746c-4 42-33 71-75 71m-200-475h-142v-142c0-21-16-33-33-33-8 0-17 4-25 8-8 8-8 17-8 25v142h-142c-8 0-17 4-25 8-4 8-8 17-8 25 0 21 16 33 33 33h142v142c0 21 16 33 33 33 21 0 33-16 33-33v-142h142c21 0 33-16 33-33 4-21-12-33-33-33" horiz-adv-x="1000" />

<glyph glyph-name="mail-empty" unicode="&#xe835;" d="M929 725h-858c-42 0-71-33-71-71v-612c0-34 29-67 71-67h862c38 0 71 29 71 71v608c-4 38-33 71-75 71z m-58-71l-350-246c-13-8-29-8-42 0l-350 246h742z m-800-608v562l371-258c16-12 37-21 62-21 21 0 42 9 63 21l371 263v-567h-867z" horiz-adv-x="1000" />

<glyph glyph-name="mail" unicode="&#xe836;" d="M563 350l437 317c0-4 0-4 0-9v-612c0-38-29-71-71-71h-858c-42 0-71 33-71 71v608c0 4 0 9 0 9l438-313c0 0 0 0 0 0 16-12 37-21 62-21 21 0 42 9 63 21 0 0 0 0 0 0z m-84 58l-433 313c4 4 17 4 25 4h862c9 0 17 0 25-4l-437-313c-13-8-29-8-42 0z" horiz-adv-x="1000" />

<glyph glyph-name="menu-empty" unicode="&#xe837;" d="M825 46h-650c-21 0-42 17-42 37 0 21 17 38 42 38h650c21 0 42-17 42-38 0-20-21-37-42-37z m0 267h-650c-21 0-42 16-42 37s17 38 42 38h650c21 0 42-17 42-38s-21-37-42-37z m0 266h-650c-21 0-42 17-42 38 0 21 17 37 42 37h650c21 0 42-16 42-37 0-21-21-38-42-38z" horiz-adv-x="1000" />

<glyph glyph-name="minus-empty" unicode="&#xe838;" d="M779 317h-558c-21 0-33 16-33 33s16 33 33 33h554c21 0 33-16 33-33s-12-33-29-33z" horiz-adv-x="1000" />

<glyph glyph-name="minus-square-empty" unicode="&#xe839;" d="M871 792h-742c-37 0-71-34-71-71v-746c0-38 34-71 71-71h746c38 0 71 33 71 71v746c-4 42-33 71-75 71z m4-813h-746v742h746v-742z m-133 342h-463c-16 0-29 17-29 33s13 38 29 38h463c16 0 29-17 29-34s-13-37-29-37z" horiz-adv-x="1000" />

<glyph glyph-name="next-empty" unicode="&#xe83b;" d="M158 38c-16-17-16-38 0-55 17-16 38-16 55 0l341 342c17 17 17 38 0 54l-341 338c-17 16-38 16-55 0-16-17-16-38 0-54l313-313-313-312z m292 0c-17-17-17-38 0-55 17-16 38-16 54 0l342 342c17 17 17 38 0 54l-342 342c-16 17-37 17-54 0-17-17-17-38 0-54l313-313-313-316z" horiz-adv-x="1000" />

<glyph glyph-name="ok-circle-empty" unicode="&#xe83c;" d="M500 850c-275 0-500-225-500-500s225-500 500-500 500 225 500 500-225 500-500 500z m0-917c-229 0-417 188-417 417s188 417 417 417 417-188 417-417-188-417-417-417z m279 571c17-16 17-41 0-58l-291-292c-17-16-42-16-59 0l-166 167c-17 17-17 42 0 58 16 17 41 17 58 0l137-137 263 262c17 17 42 17 58 0z" horiz-adv-x="1000" />

<glyph glyph-name="ok-circle" unicode="&#xe83d;" d="M758 421l-250-250c-8-8-20-13-33-13s-25 5-33 13l-146 146c-17 16-17 46 0 62 17 17 46 17 62 0l117-116 221 220c17 17 46 17 62 0s17-45 0-62m-258 429c-275 0-500-225-500-500s225-500 500-500 500 225 500 500-225 500-500 500" horiz-adv-x="1000" />

<glyph glyph-name="ok" unicode="&#xe83e;" d="M404 71l-329 317c-12 12-12 37 0 50s38 8 50-5l304-291 446 487c13 13 38 13 50 0 13-12 13-37 0-50l-471-508c-8-8-16-8-25-8-12-5-21 0-25 8z" horiz-adv-x="1000" />

<glyph glyph-name="password-empty" unicode="&#xe83f;" d="M833 367v96l0 0c0 41-8 87-25 125s-41 75-70 104-67 54-105 71c-41 16-83 25-129 25s-87-9-129-25c-42-17-79-42-108-71-34-29-54-67-71-104-17-42-25-84-25-125v-113l0 0v-379c0-34 29-63 62-63h538c33 0 62 29 62 63v396z m-525 283c50 50 117 79 192 79 71 0 142-29 192-79s79-117 79-187l0 0v-34h-542v34l0 0c0 70 29 137 79 187z m-79-679v379 17h538v-17l0 0v-379h-538z m279 346c-16 0-29-13-29-29v-105h63v100c-4 17-17 34-34 34" horiz-adv-x="1000" />

<glyph glyph-name="password" unicode="&#xe840;" d="M838 463c0 45-9 87-25 129-17 41-42 75-71 108-29 29-67 54-109 71-41 17-87 25-129 25-46 0-91-8-129-25-42-17-75-42-108-71-38-33-59-71-79-108-17-42-25-84-25-129h0v-113h0v-383c0-34 29-63 62-63h550c33 0 63 29 63 63v383 17l0 96 0 0z m-534 191c50 50 121 79 196 79 75 0 142-29 196-79 50-50 79-116 79-191h0v-34h-550v34h0c0 70 29 141 79 191z m238-371v-104h-63v104c0 17 13 34 34 34 12-4 29-17 29-34z" horiz-adv-x="1000" />

<glyph glyph-name="previous-empty" unicode="&#xe841;" d="M842 663c16 16 16 37 0 54-17 16-38 16-54 0l-342-342c-17-17-17-37 0-54l342-342c16-17 37-17 54 0 16 17 16 38 0 54l-313 317 313 313z m-292 0c17 16 17 37 0 54-17 16-37 16-54 0l-342-342c-16-17-16-37 0-54l342-342c17-17 37-17 54 0 17 17 17 38 0 54l-312 317 312 313z" horiz-adv-x="1000" />

<glyph glyph-name="prohibit" unicode="&#xe843;" d="M742 321h-463c-16 0-29 17-29 33 0 21 13 38 29 38h463c16 0 29-17 29-34 0-20-13-37-29-37z m-242 529c-275 0-500-225-500-500 0-275 225-500 500-500s500 225 500 500c0 275-225 500-500 500" horiz-adv-x="1000" />

<glyph glyph-name="rank-empty" unicode="&#xe844;" d="M146 442l325 396c12 16 37 16 50 0l329-396c21-21 4-59-25-59h-654c-29 0-46 38-25 59z m654-46l0 0c-4 4 0 0 0 0z m-50 58l-250 304-250-304h500z m-604-196c-21 21-4 59 25 59h654c29 0 46-34 25-59l-329-396c-13-16-38-16-50 0l-325 396z m654 46c0 0 0 0 0 0l0 0z m-550-58l250-304 250 304h-500z" horiz-adv-x="1000" />

<glyph glyph-name="rank" unicode="&#xe845;" d="M150 450l325 388c13 16 38 16 50 0l329-388c21-21 4-58-25-58h-654c-29 0-46 37-25 58z m0-200c-21 21-4 58 25 58h654c29 0 46-33 25-58l-329-388c-12-16-37-16-50 0l-325 388z" horiz-adv-x="1000" />

<glyph glyph-name="right-circle-empty" unicode="&#xe846;" d="M496 850c275 0 500-225 500-500s-225-500-500-500-500 225-500 500 225 500 500 500m-304-804c37-38 87-71 137-92 54-21 109-33 167-33s112 12 167 33c50 21 95 54 137 92s71 87 92 137c21 55 33 109 33 167s-8 113-33 167c-21 50-54 96-92 137s-83 71-137 92c-55 21-109 33-167 33s-113-12-167-33c-50-21-96-54-137-92s-71-87-92-137c-21-54-33-109-33-167s12-112 33-167c21-50 54-95 92-137m229 512c12 13 37 13 50 0l187-187c9-8 9-17 9-25 0-8-4-17-9-25l-183-179c-8-9-17-9-25-9-8 0-17 5-25 9-12 12-12 37 0 50l154 154-162 162c-9 13-9 38 4 50" horiz-adv-x="1000" />

<glyph glyph-name="right" unicode="&#xe848;" d="M167 392h558c0 0 0 0 0 0l-212 204c-17 17-17 42 0 62 16 17 41 17 62 0l288-275c8-8 12-20 12-29 0-12-4-21-12-29l-288-279c-8-8-21-13-29-13-13 0-21 5-29 13-17 17-17 46 0 62l212 205c0 0 0 0 0 0h-562c-21 0-42 16-42 41-4 17 17 38 42 38z" horiz-adv-x="1000" />

<glyph glyph-name="search-empty" unicode="&#xe849;" d="M929-29l-96 96c67 75 105 175 105 283 0 242-196 438-438 438s-437-196-437-438 195-438 437-438c108 0 208 38 283 105l96-96c13-13 38-13 50 0 13 16 13 37 0 50m-287 42c-46-21-92-30-142-30s-96 9-142 30c-41 16-83 45-116 79-34 33-59 75-79 116-21 46-30 92-30 142 0 50 9 96 30 142 16 41 45 83 79 116 33 34 71 63 116 80 46 20 92 29 142 29s96-9 142-29c41-17 83-46 116-80 34-33 59-70 80-116 20-46 29-92 29-142 0-50-9-96-29-142-17-41-46-83-80-116-33-34-70-63-116-79" horiz-adv-x="1000" />

<glyph glyph-name="search" unicode="&#xe84a;" d="M929-29l-96 96c67 75 105 175 105 283 0 242-196 438-438 438s-437-196-437-438c0-242 195-438 437-438 108 0 208 38 283 105l96-96c13-13 38-13 50 0 13 16 13 37 0 50" horiz-adv-x="1000" />

<glyph glyph-name="seting-empty" unicode="&#xe84b;" d="M500-150c-62 0-117 50-121 112-25 9-46 17-66 30-21-17-50-30-80-30-33 0-62 13-87 38-46 46-46 117-4 167-13 21-21 41-25 66-67 0-117 55-117 117 0 67 54 121 117 121 8 21 16 42 25 62-46 46-46 121 0 171 46 46 125 46 171 0 20 9 41 17 62 25 4 67 58 121 125 121s121-54 121-121c21-8 42-16 62-25 46 46 125 46 171 0 46-46 46-121 0-171 13-20 21-41 25-62 67 0 117-54 117-121 0-62-50-117-113-121-8-25-16-46-25-66 42-46 42-121-4-167-46-46-116-46-162-9-21-12-46-20-67-29-8-58-62-108-125-108z m-200 233l25-16c29-21 63-34 100-42l29-8v-46c0-25 21-46 46-46s46 21 46 46v46l29 8c33 8 71 21 100 42l25 16 33-33c17-17 50-17 67 0 17 17 17 50 0 67l-33 33 16 25c17 29 34 63 38 100l8 29h50c25 0 46 21 46 46s-21 46-46 46h-54l-8 29c-9 33-21 67-42 96l-17 25 38 37c17 17 17 50 0 67-17 17-50 17-67 0l-41-42-25 17c-30 17-63 29-96 38l-29 8v58c0 25-21 46-46 46s-46-21-46-46v-58l-29-8c-25-5-59-17-88-38l-25-12-41 41c-5 4-17 13-30 13s-25-9-33-17c-17-17-17-50 0-67l38-37-17-25c-17-29-33-63-42-96l-8-29h-50c-25 0-46-21-46-46s21-46 46-46h50l8-29c9-33 21-67 38-100l16-25-33-33c-17-17-17-50 0-67 17-17 50-17 67 0l33 33z m200 84c-96 0-175 79-175 175 0 96 79 175 175 175s175-79 175-175c0-96-79-175-175-175z m0 279c-58 0-100-46-100-100 0-58 46-100 100-100s100 46 100 100c0 54-42 100-100 100z" horiz-adv-x="1000" />

<glyph glyph-name="seting" unicode="&#xe84c;" d="M908 442h-25c-8 41-25 79-50 112l21 21c38 38 38 92 0 129v0c-37 38-91 38-129 0l-21-21c-33 21-71 38-112 46v29c0 50-42 92-92 92s-92-42-92-92v-29c-41-8-79-25-112-46l-21 21c-37 38-92 38-129 0v0c-38-37-38-91 0-129l21-21c-21-33-38-71-50-112h-25c-50 0-92-42-92-92v0c0-50 42-92 92-92h25c8-41 25-83 46-116l-17-17c-38-37-38-92 0-129 37-38 92-38 129 0l13 12c37-25 75-41 120-50v-21c0-50 42-91 92-91s92 41 92 91v21c41 9 83 29 121 50l12-12c38-38 92-38 129 0 38 37 38 92 0 129l-16 17c20 37 37 75 45 116h25c50 0 92 42 92 92v0c0 50-42 92-92 92m-408-246c-83 0-150 67-150 150 0 83 67 150 150 150s150-67 150-150c0-83-67-150-150-150" horiz-adv-x="1000" />

<glyph glyph-name="star-empty" unicode="&#xe84d;" d="M500 675l92-183c12-21 33-38 58-42l204-29-146-142c-16-16-25-41-20-66l33-205-183 96c-13 4-21 9-34 9-12 0-25-5-33-9l-183-96 33 205c4 25-4 50-21 66l-146 142 204 29c25 4 46 17 59 42l83 183m0 113c-17 0-33-9-42-25l-116-238c0 0 0 0 0 0l-263-37c-37-9-50-50-25-75l192-188c0 0 0 0 0 0l-46-263c-4-29 17-50 42-50 8 0 12 0 21 5l233 125c0 0 0 0 0 0s0 0 0 0l233-125c9-5 13-5 21-5 25 0 50 25 42 50l-38 263c0 0 0 0 0 0l192 183c25 25 12 71-25 75l-263 38c0 0 0 0 0 0l-116 242c-9 16-25 25-42 25" horiz-adv-x="1000" />

<glyph glyph-name="star" unicode="&#xe84e;" d="M542 763l116-238c0 0 0 0 0 0l263-37c37-5 50-50 25-75l-192-188c0 0 0 0 0 0l46-263c4-37-33-62-62-45l-234 125c0 0 0 0 0 0l-233-125c-33-17-71 12-63 45l38 263c0 0 0 0 0 0l-192 183c-25 30-12 71 25 80l263 37c0 0 0 0 0 0l116 238c17 33 67 33 84 0" horiz-adv-x="1000" />

<glyph glyph-name="edit-empty" unicode="&#xe84f;" d="M421 8l292 513 62-33-292-513-62 33z m400 696c33-21 46-62 25-96l-38-66-304 171 38 70c21 34 62 46 96 25l183-104z m-167-154l-291-512-63 33 292 512 62-33z m-121 71l-291-513-63 34 292 512 62-33z m-329-700l-62 162 304-171-171-29c-29-8-58 9-71 38z" horiz-adv-x="1000" />

<glyph glyph-name="exit-empty" unicode="&#xe850;" d="M754 483c0 0 0 5-4 5l0 0c-8 8-17 16-29 16-21 0-38-16-38-37 0-4 0-9 5-13l0 0c16-29 25-66 25-104 0-117-96-212-213-212s-212 95-212 212c0 33 8 67 25 100l0 0c4 4 4 8 4 17 0 21-17 37-38 37-12 0-25-8-33-21l0 0c-21-37-33-83-33-133 0-158 129-287 287-287s288 129 288 287c0 46-13 88-34 133 0-4 0-4 0 0z m-254-170c21 0 38 16 38 37v288c0 20-17 37-38 37s-37-17-37-37v-288c0-21 16-37 37-37z m0 537c-275 0-500-225-500-500s225-500 500-500 500 225 500 500-225 500-500 500z m0-929c-237 0-429 192-429 429s192 429 429 429 429-191 429-429-191-429-429-429z" horiz-adv-x="1000" />

<glyph glyph-name="spin2" unicode="&#xe851;" d="M46 144l0 0c0 0-1 0-1 0-8 18-15 37-21 55-6 19-11 38-15 58-19 99-8 203 35 298 3 6 10 8 15 5 1 0 2 0 2-1l0 0 80-59c5-3 6-9 4-14-5-12-9-25-12-37-4-13-7-26-9-40-11-67-3-137 23-201 2-5 0-10-4-13l0 0-80-56c-5-4-12-2-16 3-1 0-1 1-1 2l0 0z m120 574l0 0c0 1 0 1 0 1 15 13 30 25 46 37 16 11 33 22 51 31 89 50 192 72 297 60 6-1 10-6 10-13 0-1-1-1-1-2l0 0-31-94c-2-5-8-8-13-7-13 0-27 0-40 0-14-1-27-2-40-4-68-11-133-40-186-84-4-3-10-3-14 0l0 0-79 58c-5 3-6 11-2 16 0 0 1 1 2 1l0 0z m588 65l0 0c0 0 1 0 1 0 17-10 34-21 50-32 16-12 31-25 46-38 74-69 127-160 148-262 2-6-2-12-9-13-1 0-1 0-2 0l0 0-100 1c-5 0-10 4-11 9-3 13-8 26-12 38-5 12-10 25-17 36-31 61-78 113-137 150-5 3-6 8-5 13l0 0 31 92c2 6 9 9 15 7 1 0 2-1 2-1l0 0z m244-535l0 0c0 0 0 0 0 0-4-20-9-39-15-57-7-19-14-37-22-55-44-92-114-170-205-221-6-3-13-1-16 4 0 1-1 2-1 2l0 0-30 94c-2 6 1 12 6 14 11 7 22 15 32 23 11 9 21 18 30 27 49 48 84 109 101 176 2 5 6 8 11 8l0 0 98-1c6 0 11-5 11-11 0-1 0-2 0-3l0 0z m-438-395l0 0c0 0 0 0 0 0-20-2-40-3-60-3-20 0-40 1-59 4-102 12-198 54-276 125-5 4-5 11 0 16 0 0 1 1 1 1l0 0 81 58c5 3 12 2 16-2 10-8 20-16 32-23 11-7 22-14 34-20 62-31 131-45 200-41 6 0 10-3 12-8l0 0 29-92c2-6-1-12-7-14-1-1-2-1-3-1l0 0z" horiz-adv-x="1000" />

<glyph glyph-name="spin3" unicode="&#xe852;" d="M494 850c-266 0-483-210-494-472-1-19 13-20 13-20l84 0c16 0 19 10 19 18 10 199 176 358 378 358 107 0 205-45 273-118l-58-57c-11-12-11-27 5-31l247-50c21-5 46 11 37 44l-58 227c-2 9-16 22-29 13l-65-60c-89 91-214 148-352 148z m409-508c-16 0-19-10-19-18-10-199-176-358-377-358-108 0-205 45-274 118l59 57c10 12 10 27-5 31l-248 50c-21 5-46-11-37-44l58-227c2-9 16-22 30-13l64 60c89-91 214-148 353-148 265 0 482 210 493 473 1 18-13 19-13 19l-84 0z" horiz-adv-x="1000" />

<glyph glyph-name="up" unicode="&#xe853;" d="M458 17v562c0 0 0 0 0 0l-204-212c-16-17-41-17-62 0-17 16-17 41 0 62l275 288c8 4 21 8 33 8 13 0 21-4 29-12l279-288c9-8 13-21 13-29 0-13-4-21-13-29-16-17-45-17-62 0l-204 208c0 0 0 0 0 0v-558c0-21-17-42-42-42-21-4-42 17-42 42z" horiz-adv-x="1000" />

<glyph glyph-name="spin5" unicode="&#xe854;" d="M462 850c-6 0-11-5-11-11l0-183 0 0c0-6 5-11 11-11l69 0c1 0 1 0 1 0 7 0 12 5 12 11l0 183 0 0c0 6-5 11-12 11l-69 0c0 0 0 0-1 0z m250-47c-4 1-8-2-10-5l-91-158 0 0c-4-6-2-13 4-16l60-34c0-1 0-1 0-1 6-3 13-1 16 4l91 158c3 6 2 13-4 16l-61 35c-1 1-3 1-5 1z m-428-2c-2 0-4-1-6-2l-61-35c-5-3-7-10-4-16l91-157c0 0 0 0 0 0 3-6 10-8 16-5l61 35c5 4 7 11 4 16l-91 157c0 1 0 1 0 1-2 4-6 6-10 6z m620-163c-2 0-4 0-6-1l-157-91c0 0 0 0 0 0-6-3-8-10-5-16l35-61c4-5 11-7 16-4l157 91c1 0 1 0 1 0 6 3 7 11 4 16l-35 61c-2 4-6 6-10 5z m-810-4c-5 0-9-2-11-6l-35-61c-3-5-1-12 4-15l158-91 0 0c6-4 13-2 16 4l35 60c0 0 0 0 0 0 3 6 1 13-4 16l-158 91c-2 1-4 2-5 2z m712-235l0 0c-6 0-11-5-11-11l0-69c0-1 0-1 0-1 0-7 5-12 11-12l183 0 0 0c6 0 11 5 11 12l0 69c0 0 0 0 0 1 0 6-5 11-11 11l-183 0z m-794-5l0 0c-7 0-12-5-12-12l0-69c0 0 0 0 0-1 0-6 5-11 12-11l182 0 0 0c6 0 11 5 11 11l0 69c0 1 0 1 0 1 0 7-5 12-11 12l-182 0z m772-153c-4 0-8-2-10-6l-34-60c-1 0-1 0-1 0-3-6-1-13 4-16l158-91c6-3 13-1 16 4l35 61c3 5 1 12-4 15l-158 92 0 0c-2 1-4 1-6 1z m-566-5c-1 0-3 0-5-1l-157-91c0 0-1 0-1 0-5-3-7-10-4-16l35-61c3-5 10-7 16-4l157 91c0 0 0 0 0 0 6 3 8 10 5 16l-35 61c-3 3-7 6-11 5z m468-121c-2 0-4 0-6-1l-61-35c-5-4-7-11-4-16l91-157c0-1 0-1 0-1 3-6 11-7 16-4l61 35c5 3 7 10 4 16l-91 157c0 0 0 0 0 0-2 4-6 6-10 6z m-367-2c-4 0-8-2-10-6l-91-158c-3-6-1-13 4-16l61-35c5-3 12-1 15 4l92 158 0 0c3 6 1 13-5 16l-60 35c0 0 0 0 0 0-2 1-4 1-6 2z m149-58c-7 0-12-5-12-11l0-183 0 0c0-6 5-11 12-11l69 0c0 0 0 0 1 0 6 0 11 5 11 11l0 183 0 0c0 6-5 11-11 11l-69 0c-1 0-1 0-1 0z" horiz-adv-x="1000" />

<glyph glyph-name="spin6" unicode="&#xe855;" d="M855 9c-189-190-520-172-705 13-190 190-200 494-28 695 11 13 21 26 35 34 36 23 85 18 117-13 30-31 35-76 16-112-5-9-9-15-16-22-140-151-145-379-8-516 153-153 407-121 542 34 106 122 142 297 77 451-83 198-305 291-510 222l0 1c236 82 492-24 588-252 71-167 37-355-72-493-11-15-23-29-36-42z" horiz-adv-x="1000" />

<glyph glyph-name="trash-empty" unicode="&#xe856;" d="M904 667h-104c0 0-4 0-4 0h-592c0 0-4 0-4 0h-104c-21 0-33-17-33-34 0-20 12-33 33-33h37v-617c0-37 34-71 71-71h592c37 0 71 34 71 71v617h37c21 0 34 17 34 33 0 21-17 34-34 34z m-108-684h-592v617h592v-617z m-463 80c-20 0-33 16-33 33v387c-4 21 13 34 33 34 21 0 34-17 34-34v-387c0-17-17-33-34-33z m167 0c-21 0-33 16-33 33v387c0 21 12 34 33 34 21 0 33-17 33-34v-387c0-17-12-33-33-33z m-46 654c-29 0-50-21-50-50h-71c0 66 55 121 121 121h92c67 0 121-55 121-121h-71c0 29-21 50-50 50h-92z m217-654c-21 0-33 16-33 33v387c0 21 16 34 33 34s33-17 33-34v-387c0-17-16-33-33-33z" horiz-adv-x="1000" />

<glyph glyph-name="trash" unicode="&#xe857;" d="M908 696h-95c-5 0-5 0-9 0h-121v21c0 37-33 71-70 71h-230c-37 0-70-34-70-71v-21h-121c-4 0-4 0-9 0h-91c-21 0-34-17-34-33s17-34 34-34h29v-642c0-37 33-70 71-70h612c38 0 71 33 71 70v638h33c21 0 34 17 34 33s-17 38-34 38z m-545-596c0-21-17-33-34-33-21-4-37 12-37 33v400c0 17 16 33 33 33 21 0 33-16 33-33v-400z m170 0c0-21-16-33-33-33-21 0-33 16-33 33v400c0 21 16 33 33 33 21 0 33-16 33-33v-400z m175 0c0-21-16-33-33-33s-33 16-33 33v400c0 21 16 33 33 33s33-16 33-33v-400z" horiz-adv-x="1000" />

<glyph glyph-name="triangle-down-empty" unicode="&#xe858;" d="M533 83c-16-16-45-16-62 0l-396 480c-25 25-4 66 29 66h788c37 0 54-41 29-71l-388-475z m-404 525c0 0 0 0 0 0l0 0z m38-50l333-404 333 404h-666z" horiz-adv-x="1000" />

<glyph glyph-name="triangle-down" unicode="&#xe859;" d="M925 563l-392-480c-16-16-45-16-62 0l-396 480c-25 25-4 66 29 66h788c37 0 58-41 33-66z" horiz-adv-x="1000" />

<glyph glyph-name="triangle-left-empty" unicode="&#xe85a;" d="M233 317c-16 16-16 46 0 62l480 396c25 25 70 4 70-29v-788c0-37-41-54-70-29l-480 388z m525 404c0 0 0 0 0 0l0 0z m-50-38l-404-333 404-333v666z" horiz-adv-x="1000" />

<glyph glyph-name="triangle-left" unicode="&#xe85b;" d="M671 775l-479-392c-17-16-17-45 0-62l479-396c25-25 71-4 71 29v792c-4 33-46 54-71 29z" horiz-adv-x="1000" />

<glyph glyph-name="triangle-right-empty" unicode="&#xe85c;" d="M288-75c-25-25-71-4-71 29v792c0 37 41 54 71 29l479-396c16-16 16-46 0-62l-479-392z m-46 800c0-4 0-4 0 0l0 0z m50-708l404 333-404 333v-666z" horiz-adv-x="1000" />

<glyph glyph-name="triangle-right" unicode="&#xe85d;" d="M329-75l479 392c17 16 17 46 0 62l-479 396c-25 25-66 4-66-29v-788c0-37 41-58 66-33z" horiz-adv-x="1000" />

<glyph glyph-name="triangle-up-empty" unicode="&#xe85e;" d="M925 138c25-25 4-71-29-71h-792c-37 0-54 41-29 71l396 479c17 16 46 16 62 0l392-479z m-800-46c4 0 4 0 0 0l0 0z m708 50l-333 404-333-404h666z" horiz-adv-x="1000" />

<glyph glyph-name="triangle-up" unicode="&#xe85f;" d="M925 179l-392 479c-16 17-45 17-62 0l-396-479c-25-25-4-71 29-71h788c37 5 58 46 33 71z" horiz-adv-x="1000" />

<glyph glyph-name="up-circle-empty" unicode="&#xe860;" d="M0 350c0 275 225 500 500 500s500-225 500-500-225-500-500-500-500 225-500 500z m804 304c-41 38-87 71-137 92-54 21-109 33-167 33s-112-12-167-33c-50-21-95-54-137-92s-71-87-92-137c-21-54-33-109-33-167s12-112 33-167c21-50 54-95 92-137s87-71 137-92c55-21 109-33 167-33s113 12 167 33c50 21 96 54 137 92s71 87 92 137c21 55 33 109 33 167s-12 113-33 167c-21 50-54 96-92 137m-516-329l187 188c8 8 17 8 25 8 8 0 17-4 25-8l192-188c8-8 8-17 8-25 0-8-4-17-8-25-13-12-38-12-50 0l-167 163-162-163c-13-12-38-12-50 0-13 13-13 33 0 50z" horiz-adv-x="1000" />

<glyph glyph-name="up-circle" unicode="&#xe861;" d="M500 850c-275 0-500-225-500-500s225-500 500-500 500 225 500 500-225 500-500 500m208-575c-12-12-37-12-50 0l-162 158-154-154c-17-12-38-12-50 0-9 9-9 17-9 25 0 9 5 17 9 25l179 179c12 13 37 13 50 0l187-187c13-13 13-33 0-46" horiz-adv-x="1000" />

<glyph glyph-name="upload-1" unicode="&#xe862;" d="M863 446c12-13 12-38 0-50-13-13-38-13-50 0l-280 279v-617c0-20-16-33-33-33s-33 17-33 33v617l-279-279c-13-13-38-13-50 0-13 12-13 37 0 50l333 333c8 9 17 13 29 9 0 0 0 0 4 0 0 0 0 0 4 0 9 0 21-5 30-9l325-333z m37-196c21 0 33-17 33-33v-271c0-21-16-34-33-34h-800c-21 0-33 17-33 34v271c0 21 16 33 33 33s33-17 33-33v-234h734v234c0 16 16 33 33 33z" horiz-adv-x="1000" />

<glyph glyph-name="upload-empty" unicode="&#xe863;" d="M592 833c-4 9-9 13-17 17h-4-4c-4 0-4 0-9 0h-337c-54 0-100-46-96-100v-800c0-54 46-100 100-100h554c54 0 100 46 100 100v596l-287 287z m46-150l70-66h-70v66z m166-729c0-17-12-29-29-29h-554c-17 0-29 12-29 29v796c0 17 12 29 29 29h337c5 0 5 0 9 0v-179c0-29 25-54 54-54h183v-592z m-96 350l-179 179c-8 9-16 9-25 9 0 0 0 0 0 0-8 0-16-4-25-13l-179-179c-12-12-12-33 0-46 8-8 17-8 25-8s17 4 25 8l125 125v-283c0-17 17-33 33-33 17 0 34 16 34 33v283l125-125c12-12 33-12 46 0s8 38-5 50z" horiz-adv-x="1000" />

<glyph glyph-name="upload" unicode="&#xe864;" d="M600 596v217l238-238h-221c-9 4-17 13-17 21z m271-88v-587c0-38-33-71-71-71l-600 0c-37 0-71 33-71 71v858c0 38 34 71 71 71h333v-254c0-46 38-83 84-88h108v0h146z m-163-245l-179 179c-8 8-16 8-25 8 0 0 0 0 0 0-8 0-16-4-25-12l-179-180c-12-12-12-33 0-45 8-9 17-9 25-9s17 4 25 9l125 125v-284c0-16 17-33 33-33 17 0 34 17 34 33v284l125-125c12-13 33-13 46 0s8 37-5 50z" horiz-adv-x="1000" />

<glyph glyph-name="user-empty" unicode="&#xe865;" d="M846 71c-21 46-46 83-79 121-34 33-75 62-121 79-8 4-17 8-25 8 92 46 154 138 154 250 0 154-125 275-275 275s-275-121-275-275c0-108 63-204 154-250-8-4-16-4-25-8-46-21-83-46-121-79s-62-75-79-121c-16-46-29-92-29-146 0-17 13-33 33-33s34 12 34 33c0 83 33 163 91 221 59 58 138 92 221 92 84 0 163-34 221-92 58-58 92-138 92-221 0-17 12-33 33-33 17 0 33 12 33 33-8 54-20 100-37 146m-558 458c0 59 20 109 62 150 42 42 92 63 150 63s108-21 150-63c42-41 63-91 63-150 0-58-21-108-63-150s-92-62-150-62-108 21-150 62-62 92-62 150" horiz-adv-x="1000" />

<glyph glyph-name="user" unicode="&#xe866;" d="M871-63c4 0 4 0 0 0 0-29-167-50-371-50s-375 21-375 46c0 0 0 4 0 4h0c0 176 100 326 238 384-80 46-130 129-130 229 0 146 117 263 263 263s262-117 262-263c0-96-50-179-129-225 146-62 246-212 242-388l0 0" horiz-adv-x="1000" />

<glyph glyph-name="visible-empty" unicode="&#xe867;" d="M504 242c59 0 109 46 109 108 0 58-46 108-109 108s-108-45-108-108c0-62 50-108 108-108z m0-67c-96 0-175 79-175 175 0 96 79 175 175 175 96 0 175-79 175-175-4-100-79-175-175-175z m-500 188c67 216 267 366 496 366s429-150 496-366l4-13-4-12c-67-217-267-367-496-367s-429 150-496 367l-4 12 4 13z m496-321c196 0 367 125 429 308-62 183-233 308-429 308-196 0-367-125-429-308 62-183 233-308 429-308z" horiz-adv-x="1000" />

<glyph glyph-name="visible" unicode="&#xe868;" d="M504 225c-71 0-125 58-125 125 0 71 59 125 125 125 71 0 125-58 125-125 4-71-54-125-125-125z m0-67c104 0 188 84 188 188 0 104-84 187-188 187-104 0-187-83-187-187 0-104 83-188 187-188z m-504 192c67 217 263 371 500 371s433-154 500-371c-67-217-262-371-500-371s-433 154-500 371z" horiz-adv-x="1000" />

<glyph glyph-name="warning-empty" unicode="&#xe869;" d="M500 850c-275 0-500-225-500-500s225-500 500-500 500 225 500 500-225 500-500 500m304-804c-37-38-87-71-137-92-54-21-109-33-167-33s-112 12-167 33c-50 21-95 54-137 92s-71 87-92 137c-21 55-33 109-33 167s12 113 33 167c21 50 54 96 92 137s87 71 137 92c55 21 109 33 167 33s113-12 167-33c50-21 96-54 137-92s71-87 92-137c21-54 33-109 33-167s-12-112-33-167c-21-50-54-95-92-137m-266 96c0-21-17-42-42-42-21 0-42 17-42 42 0 21 17 41 42 41 25-4 42-20 42-41z m0 121c0-21-17-42-42-42-21 0-42 17-42 42v295c0 21 17 42 42 42 21 0 42-17 42-42v-295z" horiz-adv-x="1000" />

<glyph glyph-name="warning" unicode="&#xe86a;" d="M883 671c-179 212-491 242-704 62s-242-491-62-704c179-212 491-242 704-62 212 179 242 491 62 704z m-341-529c0-21-17-42-42-42-21 0-42 17-42 42s17 41 42 41c21-4 42-20 42-41z m0 121c0-21-17-42-42-42-21 0-42 17-42 42v295c0 21 17 42 42 42 21 0 42-17 42-42v-295z" horiz-adv-x="1000" />

<glyph glyph-name="minus-square" unicode="&#xe86b;" d="M858 792h-716c-46 0-84-38-84-84v-716c0-46 38-84 84-84h716c46 0 84 38 84 84v716c0 46-38 84-84 84z m-116-471h-463c-16 0-29 17-29 33 0 21 13 38 29 38h463c16 0 29-17 29-34 0-20-13-37-29-37z" horiz-adv-x="1000" />

<glyph glyph-name="prohibit-empty" unicode="&#xe86c;" d="M804 46c-37-38-87-71-137-92-54-21-109-33-167-33s-112 12-167 33c-50 21-95 54-137 92s-71 87-92 137c-21 55-33 109-33 167s12 113 33 167c21 50 54 96 92 137s87 71 137 92c55 21 109 33 167 33s113-12 167-33c50-21 96-54 137-92s71-87 92-137c21-54 33-109 33-167s-12-112-33-167c-21-50-54-95-92-137m-304 804c-275 0-500-225-500-500s225-500 500-500 500 225 500 500-225 500-500 500m242-529h-463c-16 0-29 17-29 33s13 38 29 38h463c16 0 29-17 29-34s-13-37-29-37z" horiz-adv-x="1000" />

<glyph glyph-name="right-circle" unicode="&#xe86d;" d="M500 850c-275 0-500-225-500-500s225-500 500-500 500 225 500 500-225 500-500 500z m158-529l-179-179c-8-4-16-9-25-9-8 0-16 0-25 9-12 12-12 37 0 50l159 154-163 162c-12 13-12 38 0 50s38 13 50 0l183-187c13-13 13-38 0-50z" horiz-adv-x="1000" />

<glyph glyph-name="save-empty" unicode="&#xe86e;" d="M875 808h-167-83-250-83-167c-46 0-83-37-83-83v-750c0-46 37-83 83-83h167 416 167c46 0 83 37 83 83v750c0 46-37 83-83 83z m-146-58v-217h-104v217h104z m-166 0v-217h-125v217h125z m-188 0v-217h-104v217h104z m-104-800v342h458v-342h-458z m625 0h-108c4 8 4 17 4 25v292c0 46-38 83-84 83h-416c-46 0-84-37-84-83v-292c0-8 0-17 5-25h-105v800h105c-5-8-5-17-5-25v-167c0-45 38-83 84-83h83 250 83c46 0 84 38 84 83v167c0 8 0 17-4 25h108v-800z" horiz-adv-x="1000" />

<glyph glyph-name="transaction-empty" unicode="&#xe86f;" d="M696 392c-8 0-17 0-21 0 29 46 46 100 46 154 0 158-129 287-288 287-158 0-287-129-287-287 0-113 67-213 162-258-8-5-16-5-25-9-45-21-87-46-125-83-37-38-62-79-83-125-21-46-33-96-33-150 0-17 16-34 33-34 17 0 33 17 33 34 0 87 34 167 96 229s142 96 229 96c9 0 17 0 25 0-16-33-25-71-25-113 0-146 117-262 263-262s262 116 262 262-120 259-262 259z m-263-67c-58 0-116 25-158 67s-62 91-62 154c0 58 20 112 62 154 42 46 100 67 158 67 59 0 113-21 155-63s62-96 62-154c0-58-21-112-62-154-42-46-96-71-155-71z m263-396c-108 0-200 88-200 200s87 200 200 200c108 0 200-87 200-200s-92-200-200-200z m87 213c0 0 5 0 0 0 9 0 17 0 21 4 9 8 9 21 0 29l-100 104c-8 9-21 9-29 0s-8-21 0-29l67-71h-150c-13 0-21-8-21-21s8-20 21-20h191z m17-29h-192c0 0 0 0-4 0-4 0-12 0-16-5-9-8-9-20 0-29l100-104c8-8 20-8 29 0s8 21 0 29l-67 71h150c13 0 21 8 21 21 0 4-8 17-21 17z" horiz-adv-x="1000" />

<glyph glyph-name="transaction" unicode="&#xe870;" d="M413 133c0 159 125 292 283 296 21 38 33 84 33 134 0 154-125 279-279 279s-279-125-279-279c0-105 54-192 137-242-150-63-254-221-254-409h0c0 0 0-4 0-4 0-29 179-50 396-50 46 0 92 0 138 4-105 46-175 151-175 271z m300 230c-130 0-230-105-230-230 0-129 105-229 230-229 129 0 229 104 229 229 4 125-100 230-229 230z m-130-205c0 13 9 21 21 21h150l-66 71c-9 8-9 21 0 29s20 9 29 0l100-104c8-8 8-21 0-29-4-4-13-8-17-4 0 0 0 0-4 0h-192c-8-4-21 4-21 16z m230-95h-150l66-71c9-9 9-21 0-30s-21-8-29 0l-100 105c-8 8-8 21 0 29 4 4 13 8 17 4 0 0 0 0 4 0h192c12 0 20-8 20-21 0-4-8-16-20-16z" horiz-adv-x="1000" />

<glyph glyph-name="bookmark-empty" unicode="&#xf097;" d="M643 707h-572v-693l237 227 49 47 50-47 236-227v693z m7 72q12 0 24-5 19-8 29-23t11-35v-719q0-19-11-35t-29-23q-10-4-24-4-27 0-47 18l-246 236-246-236q-20-19-46-19-13 0-25 5-18 7-29 23t-11 35v719q0 19 11 35t29 23q12 5 25 5h585z" horiz-adv-x="714.3" />

<glyph glyph-name="folder-empty" unicode="&#xf114;" d="M857 118v393q0 22-15 38t-38 15h-393q-23 0-38 16t-16 38v36q0 22-15 38t-38 15h-179q-22 0-38-15t-16-38v-536q0-22 16-38t38-16h679q22 0 38 16t15 38z m72 393v-393q0-51-37-88t-88-37h-679q-51 0-88 37t-37 88v536q0 51 37 88t88 37h179q51 0 88-37t37-88v-18h375q51 0 88-37t37-88z" horiz-adv-x="928.6" />

<glyph glyph-name="folder-open-empty" unicode="&#xf115;" d="M994 331q0 19-30 19h-607q-22 0-48-12t-39-29l-164-203q-11-13-11-22 0-20 30-20h607q23 0 48 13t40 29l164 203q10 12 10 22z m-637 90h429v90q0 22-16 38t-38 15h-321q-23 0-38 16t-16 38v36q0 22-15 38t-38 15h-179q-22 0-38-15t-16-38v-476l143 175q25 30 65 49t78 19z m708-90q0-35-25-67l-165-203q-24-30-65-49t-78-19h-607q-51 0-88 37t-37 88v536q0 51 37 88t88 37h179q51 0 88-37t37-88v-18h303q52 0 88-37t37-88v-90h107q30 0 56-13t37-40q8-17 8-37z" horiz-adv-x="1071.4" />

<glyph glyph-name="toggle-off" unicode="&#xf204;" d="M643 350q0 58-23 111t-61 91-91 61-111 23-111-23-91-61-61-91-23-111 23-111 61-91 91-61 111-23 111 23 91 61 61 91 23 111z m428 0q0 58-22 111t-61 91-91 61-111 23h-216q67-50 106-125t38-161-38-161-106-125h216q58 0 111 23t91 61 61 91 22 111z m72 0q0-72-29-139t-76-113-114-77-138-28h-429q-72 0-138 28t-114 77-76 113-29 139 29 139 76 114 114 76 138 28h429q72 0 138-28t114-76 76-114 29-139z" horiz-adv-x="1142.9" />

<glyph glyph-name="toggle-on" unicode="&#xf205;" d="M0 350q0 73 29 139t76 114 114 76 138 28h429q72 0 138-28t114-76 76-114 29-139-29-139-76-113-114-77-138-28h-429q-72 0-138 28t-114 77-76 113-29 139z m786-286q58 0 111 23t91 61 61 91 22 111-22 111-61 91-91 61-111 23-111-23-91-61-61-91-23-111 23-111 61-91 91-61 111-23z" horiz-adv-x="1142.9" />
</font>
</defs>
</svg>
